<?xml version="1.0" encoding="UTF-8"?> <!-- Creator: CorelDRAW 2021.5 --> <svg xmlns="http://www.w3.org/2000/svg" xmlns:xlink="http://www.w3.org/1999/xlink" xmlns:xodm="http://www.corel.com/coreldraw/odm/2003" xml:space="preserve" width="161.29mm" height="29.21mm" style="shape-rendering:geometricPrecision; text-rendering:geometricPrecision; image-rendering:optimizeQuality; fill-rule:evenodd; clip-rule:evenodd" viewBox="0 0 16129 2921"> <defs> <style type="text/css"> <![CDATA[ .fil0 {fill:#274C97} ]]> </style> </defs> <g id="Слой_x0020_1"> <metadata id="CorelCorpID_0Corel-Layer"></metadata> <path class="fil0" d="M929.46 1817.31l462.89 -802.25c20.24,-35.04 44.71,-54.36 68.93,-54.36 24.17,-0.01 48.65,19.32 68.91,54.38l465.08 802.23 -1065.81 0zm531.82 -1214.69c24.17,0 48.65,19.33 68.92,54.43l676.39 1160.26 -114.52 0 -486.52 -845.81c-36.47,-63.11 -87.71,-97.89 -144.27,-97.89 -56.61,0 -107.87,34.78 -144.34,97.89l-486.46 843.21c-19.46,-3.43 -41.19,-11.47 -51.8,-29.83 -12.1,-21.01 -7.57,-51.86 12.71,-86.97l600.96 -1040.88c20.24,-35.08 44.71,-54.41 68.93,-54.41zm-581.25 1301.77l1165.77 0 61.94 106.85 -1152.4 0c-40.5,-0.01 -69.46,-11.56 -81.54,-32.46 -10.5,-18.24 -8.27,-44.41 6.23,-74.39zm1378.51 0c14.53,30.02 16.79,56.17 6.26,74.35 -9.87,17.08 -31.63,28.01 -61.86,31.34l-60.77 -105.69 116.37 0zm-780.78 836.57c-699.11,0 -1267.9,-568.81 -1267.9,-1267.94 0,-559.8 375.6,-1060.31 912.82,-1217.08 38.99,-9.89 103.22,-26.09 107.92,-27.06l1.56 -0.02c4.82,0 9.01,0 9.06,12.73l0.03 140.7c0.54,7.69 -3.05,14.09 -8.95,23.99l-710.34 1230.42c-36.44,63.09 -40.96,124.87 -12.73,173.85l240.03 421.24c28.25,49.05 83.99,76.1 156.92,76.16l1181.79 1.03 20.06 0.04 16.96 -0.65 0 -1.57c56.65,-7.15 100.27,-33 123.8,-73.7 23.55,-40.89 24.07,-91.4 1.98,-143.97 40.16,-11.8 70.82,-34.62 89.38,-66.79 21.73,-37.73 23.97,-84.18 6.71,-132.41 33.02,-12.78 58.58,-33.84 74.56,-61.57 28.29,-48.99 23.79,-110.73 -12.62,-173.86l-712.69 -1243.11c-7.59,-13.17 -11.59,-25.87 -10.94,-36.03l0 -124.04c0.04,-13.13 10.42,-25.04 22.67,-25.04 0.03,0 0.03,0 0.05,0 0.93,0.06 3.25,0.38 6.44,0.82l21.83 4.51c584.97,121.66 1009.52,643.72 1009.52,1241.41 0,699.13 -568.79,1267.94 -1267.92,1267.94zm1051.28 -2112.52c-189.25,-234.94 -454.16,-401.66 -746.53,-469.54 -12.7,-2.52 -54.91,-10.78 -63.48,-11.2 -64.58,-3.52 -116.43,44.3 -116.59,105.66l-0.36 109.08 0.39 15.67 0 2.12c-0.79,27.19 5.37,52.33 18.23,74.6l106.15 186.25 -2.66 1.61 609.2 1055.22c20.27,35.11 24.78,65.95 12.68,86.91 -8.98,15.51 -25.95,23.52 -41.52,27.75l-699 -1199.06c-36.45,-63.18 -87.67,-97.93 -144.27,-97.93 -56.63,0 -107.89,34.75 -144.34,97.93l-600.99 1040.88c-36.45,63.16 -40.92,124.96 -12.63,173.97 18.19,31.56 48,54.18 86.9,66.14 -15.84,47.06 -13.09,90.91 8.22,127.84 28.31,49.02 84.05,76.01 156.9,76.01l1202.71 -0.3 2.63 4.61c20.31,35.06 24.81,65.94 12.76,86.86 -12.04,20.72 -40.61,32.21 -80.44,32.43l-1186.72 -1.05c-40.59,-0.08 -69.56,-11.67 -81.55,-32.53l-240.05 -421.28c-12.09,-20.91 -7.6,-51.77 12.65,-86.84l456.6 -790.83 2.34 1.38 248.35 -435.87c12.94,-22.35 19.09,-47.5 18.32,-74.29l-0.18 -27.9 1 0 -0.34 -110.85c-0.24,-51.01 -40.75,-94.17 -88.48,-94.17 -5.43,0 -10.88,0.54 -16.29,1.65 -16.7,3.37 -29.21,6.2 -36.94,8.04l-0.49 -0.44 -8.74 2.04c-291.83,67.77 -556.76,234.49 -746,469.42 -192.16,238.51 -297.99,538.48 -297.99,844.59 0,744.05 605.29,1349.31 1349.26,1349.31 744,0 1349.24,-605.26 1349.24,-1349.31 0,-306.11 -105.81,-606.09 -297.95,-844.58zm3759.61 219.46c77.83,0 173.13,0 245.09,-48.63 58.45,-36.94 103.14,-107.04 103.14,-200.42 0.01,-42.78 -7.73,-110.88 -64.22,-167.28 -77.82,-77.83 -196.46,-79.8 -305.42,-79.8l-612.88 0.01 0 496.12 634.29 0zm7.77 -659.55c180.93,0 313.28,25.27 418.28,114.79 99.26,87.57 134.29,206.22 134.29,305.44 0.01,83.65 -25.32,171.18 -72.01,237.36 -118.65,165.43 -322.95,167.3 -461.09,167.3l-659.55 0 0 548.7 -198.44 0 0 -1373.59 838.52 0zm952.57 692.63c0,107 27.35,245.12 120.69,350.22 128.39,149.79 328.77,198.43 527.23,198.43 507.8,0 630.41,-321.02 630.41,-554.47 0,-361.86 -289.93,-562.26 -665.41,-552.55 -286.03,7.76 -612.92,151.75 -612.92,558.37zm1474.78 13.65c0,468.89 -385.2,704.27 -826.86,704.27 -200.34,0 -402.74,-36.96 -564.21,-151.75 -134.22,-93.37 -278.21,-264.57 -278.21,-554.5 0,-507.82 418.31,-737.38 828.85,-737.38 480.54,1.96 840.42,284.07 840.43,739.36zm2211.09 -706.28l1268.52 0 0 169.3 -1073.93 0 0 410.48 1044.74 0 0 161.48 -1044.74 0 0 463.07 1122.6 0 0 169.26 -1317.19 0 0 -1373.59zm3164.1 996.11c-52.53,93.41 -107.02,186.79 -243.2,272.4 -169.23,107.02 -387.19,138.14 -552.55,138.14 -558.38,0 -834.61,-321.01 -834.61,-729.55 0.01,-324.95 161.46,-474.74 254.85,-544.82 58.37,-46.65 221.75,-173.11 573.9,-173.11 99.25,-0.01 338.58,13.61 523.4,128.36 145.89,91.46 213.96,206.24 251,268.52l-210.1 46.71c-31.16,-54.53 -64.23,-112.85 -149.9,-169.28 -83.59,-54.49 -231.48,-103.14 -406.56,-103.14 -326.82,0 -630.39,153.71 -630.39,540.88 0,136.18 38.92,276.28 142.04,391.07 93.4,95.3 252.93,175.12 500,175.12 212.1,1.92 354.09,-52.49 437.8,-118.73 73.86,-54.47 118.59,-124.45 138.06,-165.32l206.26 42.75zm1846.95 0c-52.52,93.41 -106.98,186.79 -243.19,272.4 -169.3,107.02 -387.19,138.14 -552.58,138.14 -558.38,0 -834.64,-321.01 -834.64,-729.55 0.01,-324.95 161.5,-474.74 254.89,-544.82 58.37,-46.65 221.73,-173.11 573.9,-173.11 99.26,-0.01 338.58,13.61 523.39,128.36 145.93,91.46 214.05,206.24 250.97,268.52l-210.15 46.71c-31.11,-54.53 -64.15,-112.85 -149.82,-169.28 -83.64,-54.49 -231.44,-103.14 -406.62,-103.14 -326.88,0 -630.39,153.71 -630.39,540.88 0.01,136.18 38.98,276.28 142.06,391.07 93.37,95.3 252.97,175.12 500.03,175.12 212.09,1.92 354.07,-52.49 437.72,-118.73 73.96,-54.47 118.71,-124.45 138.14,-165.32l206.29 42.75zm-12272.64 -996.09l0 1373.57 194.56 0 0 -1206.27 1019.52 0 0 1206.27 194.55 0 0 -1373.57 -1408.63 0zm6716.09 1220.31l0 -1220.27 -194.57 0 0 1206.27 -1019.49 0 0 -1206.27 -194.55 0 0 1373.57 1497.57 0.4 0 490.3 155.61 0 0 -644 -244.57 0zm-6482.45 1327.8l0 -166.43 -197.85 0 0 166.43 -47.93 0 0 -363.77 47.93 0 0 154.56 197.85 0 0 -154.56 48.94 0 0 363.77 -48.94 0zm257.62 -304.01l-55.64 152 108.71 0 -53.07 -152zm107.18 304.01l-39.68 -111.3 -138.61 0 -40.69 111.3 -51.54 0 138.6 -363.77 50.49 0 132.42 363.77 -50.99 0zm203.51 -130.89l97.89 -232.88 51.52 0 -107.16 243.2c-45.86,104.59 -63.38,120.57 -138.6,120.57l-15.46 0 0 -42.25 15.46 0c44.3,0 56.16,-8.24 69.04,-37.63l-132.42 -283.89 54.61 0 105.12 232.88zm230.82 -122.63c0,61.32 26.27,73.17 86.55,73.17 25.25,0 54.63,-3.09 88.62,-9.27l0.01 -174.15 48.44 0 0 363.77 -48.44 0 0 -147.37c-37.1,6.71 -66.98,9.27 -93.25,9.27 -100.47,0 -130.37,-36.57 -130.37,-91.71l0 -133.96 48.44 0 0 110.25zm550.29 253.52l0 -166.43 -197.86 0 0 166.43 -47.92 0 0 -363.77 47.92 0 0 154.56 197.86 0 0 -154.56 48.93 0 0 363.77 -48.93 0zm299.84 -28.86c72.14,0 129.34,-48.45 129.34,-156.13 0,-72.12 -32.46,-148.9 -130.37,-148.9 -96.35,0 -130.87,76.25 -130.87,152 0,93.78 49.99,153.03 131.9,153.03zm-2.56 38.13c-94.29,0 -181.89,-61.32 -181.89,-191.68 0.01,-132.93 90.15,-190.65 183.42,-190.65 110.79,0 182.91,77.82 182.91,188.07 0,88.64 -48.43,194.26 -184.44,194.26zm233.4 -144.28l0 -39.16 144.25 0 0 39.16 -144.25 0zm493.08 -228.76l0 363.77 -48.44 0 0 -321.52 -188.56 0 0 321.52 -48.45 0 0 -363.77 285.45 0zm243.19 166.42c38.63,0 65.43,-20.6 65.43,-64.91 0.01,-42.78 -27.8,-59.78 -64.9,-59.78l-117.48 0 0 124.69 116.95 0zm8.77 -166.42c70.58,0 104.59,45.34 104.59,102.52 0,50.51 -27.31,107.18 -106.15,107.18l-124.16 0 0 154.07 -46.89 0 0 -363.77 172.61 0zm320.99 334.91c72.13,0 129.33,-48.45 129.33,-156.13 0,-72.12 -32.48,-148.9 -130.36,-148.9 -96.35,0 -130.87,76.25 -130.87,152 0,93.78 49.96,153.03 131.9,153.03zm-2.57 38.13c-94.29,0 -181.88,-61.32 -181.88,-191.68 0,-132.93 90.15,-190.65 183.42,-190.65 110.79,0 182.91,77.82 182.91,188.07 0,88.64 -48.43,194.26 -184.45,194.26zm298.84 -373.04l0 258.65 197.86 -224.66 0 -33.99 48.42 0 0 363.77 -48.42 0 0 -265.88 -197.86 224.66 0 41.22 -48.43 0 0 -363.77 48.43 0zm404.98 152.52l62.85 0c62.34,0 75.73,-25.26 75.73,-59.78 0,-42.25 -32.96,-62.86 -81.91,-62.86 -56.17,0 -89.15,30.91 -93.77,76.25l-46.89 -9.27c10.3,-69.55 63.9,-106.15 139.1,-106.15 89.67,0 135.01,36.6 135.01,101.51 0,43.8 -22.68,66.46 -55.66,79.87 38.66,9.27 63.39,41.22 63.39,85.53 0.01,93.27 -72.66,115.42 -143.24,115.42 -69.57,0 -147.37,-23.19 -155.61,-120.07l48.43 -8.23c0,78.31 74.2,89.14 107.68,89.14 63.9,0 90.18,-35.04 90.18,-77.29 0,-21.63 -6.71,-61.84 -67.5,-61.84l-77.79 0 0 -42.23zm426.09 168.48c35.57,0 76.26,-5.68 76.26,-61.32 0,-43.8 -30.92,-65.44 -74.73,-65.44l-119.51 0 0 126.76 117.98 0zm-10.3 -167.97c32.46,0 74.7,-6.18 74.7,-57.2 0,-29.89 -17,-53.07 -62.34,-53.07l-120.04 0 0 110.27 107.68 0zm-153.55 -153.03l174.67 0c52.05,0 104.59,32.46 104.59,93.25 0,37.09 -21.65,69.04 -55.63,78.84 28.86,8.75 66.46,30.4 66.46,91.18 0,80.91 -68.53,100.5 -113.86,100.5l-176.23 0 0 -363.77zm525.54 334.91c72.13,0 129.33,-48.45 129.33,-156.13 0,-72.12 -32.46,-148.9 -130.35,-148.9 -96.35,0 -130.89,76.25 -130.89,152 0,93.78 49.99,153.03 131.91,153.03zm-2.57 38.13c-94.29,0 -181.88,-61.32 -181.88,-191.68 0,-132.93 90.17,-190.65 183.43,-190.65 110.78,0 182.89,77.82 182.89,188.07 0,88.64 -48.42,194.26 -184.44,194.26zm345.2 -272.06c0,69.05 -4.12,178.27 -53.58,220.54l195.81 0 0 -279.27 -142.23 0 0 58.73zm190.65 -100.98l0 321.52 46.39 0 0 119.54 -44.33 0 0 -77.29 -277.18 0 0 77.29 -44.34 0 0 -119.54c37.63,-2.08 82.44,-59.78 82.44,-220.54l0.01 -100.98 237.01 0zm424.57 231.85c-12.36,58.73 -64.4,141.19 -179.31,141.19 -109.22,0 -177.75,-77.29 -177.75,-191.16 0,-113.35 68.53,-191.17 183.95,-191.17 86.55,0 141.69,41.75 165.91,111.3l-48.96 9.8c-12.88,-40.72 -49.46,-82.44 -117.48,-82.44 -82.94,0 -129.84,61.31 -129.84,149.93 0.01,104.09 57.2,153.03 130.37,153.03 56.67,0 108.71,-32.97 120.57,-106.66l52.54 6.18zm174.66 -189.6l0 321.52 -48.43 0 0 -321.52 -109.22 0 0 -42.25 266.36 0 0 42.25 -108.71 0zm319.45 278.75c35.55,0 76.26,-5.68 76.26,-61.32 0,-43.8 -30.92,-65.44 -74.72,-65.44l-119.54 0 0 126.76 118 0zm-10.3 -167.97c32.46,0 74.71,-6.18 74.71,-57.2 0,-29.89 -17.01,-53.07 -62.35,-53.07l-120.06 0 0 110.27 107.7 0zm-153.55 -153.03l174.68 0c52.02,0 104.59,32.46 104.59,93.25 0,37.09 -21.65,69.04 -55.64,78.84 28.84,8.75 66.46,30.4 66.46,91.18 0,80.91 -68.54,100.5 -113.88,100.5l-176.21 0 0 -363.77zm355.01 363.77l0 -363.77 250.4 0 0 42.25 -201.98 0 0 112.84 175.18 0 0 42.25 -175.18 0 0 124.18 208.16 0 0 42.25 -256.58 0zm557.47 0l0 -166.43 -197.85 0 0 166.43 -47.93 0 0 -363.77 47.93 0 0 154.56 197.85 0 0 -154.56 48.96 0 0 363.77 -48.96 0zm397.26 0l0 -166.43 -197.86 0 0 166.43 -47.93 0 0 -363.77 47.93 0 0 154.56 197.86 0 0 -154.56 48.95 0 0 363.77 -48.95 0zm299.86 -28.86c72.15,0 129.33,-48.45 129.33,-156.13 0,-72.12 -32.47,-148.9 -130.36,-148.9 -96.35,0 -130.87,76.25 -130.87,152 0.01,93.78 49.96,153.03 131.9,153.03zm-2.57 38.13c-94.29,0 -181.88,-61.32 -181.88,-191.68 0.01,-132.93 90.15,-190.65 183.42,-190.65 110.79,0 182.91,77.82 182.91,188.07 0.01,88.64 -48.43,194.26 -184.45,194.26zm250.39 -9.27l0 -363.77 250.41 0 0 42.25 -201.98 0 0 112.84 175.21 0 0 42.25 -175.21 0 0 124.18 208.18 0 0 42.25 -256.61 0zm621.38 -28.86c72.14,0 129.33,-48.45 129.33,-156.13 0.01,-72.12 -32.47,-148.9 -130.36,-148.9 -96.35,0 -130.87,76.25 -130.87,152 0,93.78 49.96,153.03 131.9,153.03zm-2.56 38.13c-94.29,0 -181.89,-61.32 -181.89,-191.68 0.01,-132.93 90.15,-190.65 183.42,-190.65 110.79,0 182.91,77.82 182.91,188.07 0.01,88.64 -48.43,194.26 -184.44,194.26zm298.81 -51.52l118.51 0c56.69,0 74.2,-27.83 74.2,-63.9 0,-43.28 -26.78,-62.87 -69.05,-62.87l-123.66 0 0 126.77zm213.31 -321.52l0 42.25 -213.31 0 0 110.27 128.84 0c91.71,0 114.35,53.05 114.35,103.04 0,51.52 -23.18,108.21 -122.6,108.21l-169.01 0 0 -363.77 261.73 0zm198.91 321.52l112.32 0c56.68,0 74.18,-27.83 74.18,-63.9 0,-43.28 -26.8,-62.87 -69.05,-62.87l-117.45 0 0 126.77zm0 -321.52l0 152.52 122.6 0c91.73,0 114.39,53.05 114.39,103.04 0.01,51.52 -23.18,108.21 -122.63,108.21l-162.79 0 0 -321.52 -96.88 0 0 -42.25 145.31 0zm295.74 363.77l0 -363.77 250.41 0 0 42.25 -201.98 0 0 112.84 175.18 0 0 42.25 -175.18 0 0 124.18 208.16 0 0 42.25 -256.59 0zm406 -262.79c0,69.05 -4.13,178.27 -53.59,220.54l195.8 0 0 -279.27 -142.21 0 0 58.73zm190.64 -100.98l0 321.52 46.37 0 0 119.54 -44.3 0 0 -77.29 -277.2 0 0 77.29 -44.32 0 0 -119.54c37.62,-2.08 82.43,-59.78 82.43,-220.54l0.01 -100.98 237.01 0zm151.49 0l0 258.65 197.83 -224.66 0 -33.99 48.45 0 0 363.77 -48.45 0 0 -265.88 -197.83 224.66 0 41.22 -48.45 0 0 -363.77 48.45 0zm572.95 363.77l0 -166.43 -197.86 0 0 166.43 -47.92 0 0 -363.77 47.92 0 0 154.56 197.86 0 0 -154.56 48.96 0 0 363.77 -48.96 0zm129.31 0l0 -363.77 250.42 0 0 42.25 -201.98 0 0 112.84 175.17 0 0 42.25 -175.17 0 0 124.18 208.15 0 0 42.25 -256.59 0zm557.49 0l0 -166.43 -197.86 0 0 166.43 -47.9 0 0 -363.77 47.9 0 0 154.56 197.86 0 0 -154.56 48.95 0 0 363.77 -48.95 0zm177.76 -363.77l0 258.65 197.86 -224.66 0 -33.99 48.43 0 0 363.77 -48.43 0 0 -265.88 -197.86 224.66 0 41.22 -48.42 0 0 -363.77 48.42 0zm326.66 363.77l0 -363.77 250.41 0 0 42.25 -201.98 0 0 112.84 175.18 0 0 42.25 -175.18 0 0 124.18 208.16 0 0 42.25 -256.59 0z"></path> </g> </svg> 